<?xml version="1.0" encoding="utf-8"?>
<!-- Generator: Adobe Illustrator 16.0.4, SVG Export Plug-In . SVG Version: 6.00 Build 0)  -->
<!DOCTYPE svg PUBLIC "-//W3C//DTD SVG 1.1//EN" "http://www.w3.org/Graphics/SVG/1.1/DTD/svg11.dtd">
<svg version="1.1" id="Layer_1" xmlns="http://www.w3.org/2000/svg" xmlns:xlink="http://www.w3.org/1999/xlink" x="0px" y="0px"
	 width="176.971px" height="695.373px" viewBox="0 0 176.971 695.373" enable-background="new 0 0 176.971 695.373"
	 xml:space="preserve">
<g>
	<path fill="#FFFFFF" d="M124,78v0.069c5-3.137,8.714-7.418,11.264-12.838c2.547-5.424,3.818-11.142,3.818-17.151
		c0-7.448-1.474-13.983-4.412-19.6c-2.94-5.62-6.831-10.29-11.663-14.014c-4.836-3.724-10.423-6.535-16.759-8.428
		c-6.34-1.896-12.906-2.842-19.699-2.842c-7.055,0-13.853,0.946-20.383,2.842c-6.535,1.893-12.317,4.704-17.347,8.428
		c-5.032,3.724-9.019,8.458-11.957,14.21c-2.938,5.749-4.409,12.413-4.409,19.992c0,6.664,1.241,12.642,3.657,17.935
		S42,76.174,48,79.441V80H35v26h140V78H124z M115.361,66.897c-1.832,3.004-4.213,5.454-7.153,7.35
		c-2.938,1.893-6.34,3.234-10.19,4.018c-3.854,0.784-7.873,1.177-12.056,1.177c-4.185,0-8.231-0.393-12.151-1.177
		c-3.92-0.783-7.416-2.091-10.483-3.92c-3.072-1.831-5.521-4.281-7.353-7.35c-1.83-3.071-2.744-6.894-2.744-11.466
		c0-4.312,0.946-8.006,2.845-11.075c1.893-3.071,4.375-5.62,7.446-7.644c3.067-2.028,6.565-3.498,10.485-4.41
		c3.92-0.916,7.841-1.372,11.761-1.372c4.18,0,8.196,0.423,12.055,1.274c3.853,0.848,7.281,2.22,10.289,4.116
		c3.005,1.893,5.421,4.41,7.252,7.546c1.828,3.136,2.744,6.989,2.744,11.564C118.105,60.102,117.189,63.89,115.361,66.897z"/>
	<path fill="#FFFFFF" d="M123.691,125.695c-4.771-4.575-10.422-8.104-16.953-10.584c-6.536-2.483-13.592-3.724-21.168-3.724
		c-7.842,0-15.028,1.206-21.562,3.626c-6.534,2.416-12.151,5.846-16.854,10.29c-4.704,4.44-8.329,9.864-10.879,16.268
		c-2.549,6.4-3.821,13.588-3.821,21.56c0,11.497,2.434,21.296,7.658,29.4C45.337,200.632,54,206.644,66,210.563v-24.5
		c-3-0.916-5.93-3.399-8.736-7.448c-2.812-4.052-4.124-8.888-4.124-14.504c0-7.84,2.116-13.852,6.168-18.032
		C63.355,141.896,70,139.611,79,139.22v73.107c8,0.521,15.306-0.132,22.492-1.96c7.187-1.831,13.563-4.802,19.187-8.918
		c5.614-4.116,10.081-9.377,13.413-15.778c3.332-6.403,4.992-13.916,4.992-22.539c0-7.712-1.376-14.734-4.12-21.07
		C132.22,135.722,128.459,130.268,123.691,125.695z M112.845,177.537c-3.66,3.332-8.846,5.65-15.846,6.958V139.22
		c2,0.128,3.954,0.554,6.438,1.273c2.479,0.717,4.721,1.96,6.941,3.725c2.222,1.764,4.024,4.115,5.529,7.056
		c1.5,2.939,2.34,6.63,2.34,11.074C118.248,169.14,116.501,174.205,112.845,177.537z"/>
	<path fill="#FFFFFF" d="M123.887,228.985c-4.64-3.659-9.996-6.438-16.07-8.33c-6.075-1.896-12.383-2.842-18.914-2.842
		c-6.928,0-13.493,0.814-19.698,2.45c-6.207,1.632-11.631,4.214-16.269,7.742c-4.642,3.527-8.299,8.035-10.978,13.523
		c-2.681,5.487-4.019,12.021-4.019,19.601c0,6.14,1.463,11.986,4.013,17.541C44.5,284.224,48,288.501,54,291.509V292H40.293
		c-7.185,0-13.131-1.651-17.836-5.244c-4.703-3.595-7.056-9.334-7.056-17.174c0-4.968,0.854-9.356,2.878-13.145
		c2.027-3.791,5.721-6.351,10.721-7.656v-27.636c-5,0.392-10.523,1.991-14.641,4.802c-4.114,2.808-7.398,6.336-10.015,10.584
		c-1.806,2.933-3.194,6.09-4.347,9.461v43.79c0.453,1.358,0.938,2.67,1.485,3.883c3.136,6.924,6.957,12.217,11.466,15.875
		c4.508,3.658,9.377,5.863,14.602,6.974C32.78,317.623,37.416,318,41.467,318H136v-26h-13v-0.491c6-3.4,9.965-7.613,12.449-12.642
		c2.479-5.032,3.677-10.878,3.677-17.542c0-7.057-1.396-13.297-4.143-18.718C132.24,237.184,128.523,232.643,123.887,228.985z
		 M115.557,279.554c-1.699,3.004-3.986,5.42-6.858,7.252c-2.875,1.828-6.175,3.135-9.898,3.92
		c-3.723,0.783-7.678,1.176-11.856,1.176c-3.659,0-7.153-0.49-10.485-1.471s-6.306-2.449-8.918-4.41
		c-2.615-1.959-4.703-4.443-6.271-7.447c-1.567-3.008-2.353-6.468-2.353-10.389c0-4.312,0.912-7.906,2.744-10.779
		c1.827-2.875,4.18-5.193,7.055-6.958c2.873-1.765,6.106-3.007,9.703-3.724c3.592-0.72,7.217-1.078,10.877-1.078
		c3.789,0,7.414,0.423,10.879,1.273c3.461,0.849,6.531,2.221,9.211,4.116c2.679,1.893,4.804,4.245,6.371,7.056
		c1.568,2.809,2.353,6.174,2.353,10.094C118.105,272.757,117.254,276.546,115.557,279.554z"/>
	<path fill="#FFFFFF" d="M133.1,363.833c-1.896-2.877-3.941-5.424-6.618-7.645c-2.681-2.225-5.48-3.988-8.48-5.293V351h18v-27H35v28
		h45.67c4.572,0,8.82,0.396,12.74,1.312c3.92,0.912,7.35,2.418,10.289,4.574c2.938,2.156,5.258,4.982,6.959,8.51
		c1.694,3.529,2.547,7.832,2.547,12.932c0,1.693-0.099,3.299-0.293,5.131c-0.197,1.828-0.427,3.544-0.688,4.544h25.873
		c0.651-2,0.979-4.09,0.979-5.918c0-3.528-0.522-6.853-1.568-10.116C136.463,369.698,134.992,366.704,133.1,363.833z"/>
	<path fill="#FFFFFF" d="M123.691,402.247c-4.771-4.576-10.422-8.104-16.953-10.584c-6.536-2.484-13.592-3.725-21.168-3.725
		c-7.842,0-15.028,1.207-21.562,3.625c-6.534,2.418-12.151,5.848-16.854,10.291c-4.704,4.439-8.329,9.861-10.879,16.268
		c-2.549,6.4-3.821,13.588-3.821,21.561c0,11.496,2.434,21.299,7.658,29.4C45.337,477.183,54,483.194,66,487.114v-24.5
		c-3-0.916-5.93-3.398-8.736-7.447c-2.812-4.053-4.124-8.889-4.124-14.504c0-7.84,2.116-13.854,6.168-18.033
		C63.355,418.446,70,416.163,79,415.771v73.107c8,0.521,15.306-0.131,22.492-1.959c7.187-1.832,13.563-4.803,19.187-8.918
		c5.614-4.117,10.081-9.379,13.413-15.779s4.992-13.916,4.992-22.539c0-7.711-1.376-14.732-4.12-21.07
		C132.22,412.272,128.459,406.819,123.691,402.247z M112.845,454.089c-3.66,3.332-8.846,5.65-15.846,6.957v-45.275
		c2,0.129,3.954,0.557,6.438,1.273c2.479,0.717,4.721,1.961,6.941,3.725c2.222,1.766,4.024,4.115,5.529,7.059
		c1.5,2.938,2.34,6.629,2.34,11.072C118.248,445.69,116.501,450.757,112.845,454.089z"/>
	<path fill="#FFFFFF" d="M123.691,506.909c-4.771-4.576-10.422-8.104-16.953-10.584c-6.536-2.484-13.592-3.727-21.168-3.727
		c-7.842,0-15.028,1.207-21.562,3.625c-6.534,2.418-12.151,5.85-16.854,10.291c-4.704,4.441-8.329,9.863-10.879,16.27
		c-2.549,6.398-3.821,13.588-3.821,21.561c0,11.496,2.434,21.297,7.658,29.4C45.337,581.845,54,587.856,66,591.776v-24.5
		c-3-0.916-5.93-3.398-8.736-7.447c-2.812-4.053-4.124-8.889-4.124-14.504c0-7.84,2.116-13.854,6.168-18.033
		C63.355,523.108,70,520.825,79,520.433v73.107c8,0.521,15.306-0.131,22.492-1.959c7.187-1.832,13.563-4.803,19.187-8.918
		c5.614-4.117,10.081-9.379,13.413-15.779s4.992-13.916,4.992-22.539c0-7.711-1.376-14.732-4.12-21.068
		C132.22,516.935,128.459,511.481,123.691,506.909z M112.845,558.751c-3.66,3.332-8.846,5.65-15.846,6.957v-45.275
		c2,0.129,3.954,0.557,6.438,1.273c2.479,0.717,4.721,1.961,6.941,3.725c2.222,1.766,4.024,4.115,5.529,7.059
		c1.5,2.938,2.34,6.629,2.34,11.07C118.248,550.354,116.501,555.419,112.845,558.751z"/>
	<path fill="#FFFFFF" d="M132.512,613.53c-2.421-4.186-5.72-7.545-9.898-10.095c-4.184-2.55-9.538-3.821-16.071-3.821
		c-4.442,0-8.201,0.912-11.271,2.744c-3.071,1.827-5.619,4.243-7.646,7.252c-2.026,3.004-3.658,6.436-4.899,10.291
		c-1.242,3.852-2.319,7.805-3.231,11.855c-2.093,9.929-4.185,17.67-6.272,23.229c-2.093,5.551-5.228,8.33-9.408,8.33
		c-2.481,0-4.541-0.589-6.174-1.768c-1.636-1.176-2.938-2.645-3.92-4.409c-0.979-1.765-1.699-3.724-2.156-5.88
		c-0.459-2.154-0.687-4.215-0.687-6.174c0-2.744,0.324-5.391,0.979-7.938c0.651-2.55,1.666-4.805,3.037-6.766
		c1.373-1.959,3.172-3.561,5.328-4.801C62.379,624.339,65,623.72,68,623.72v-26.459c-7,0.261-12.479,1.795-16.99,4.605
		c-4.508,2.809-8.149,6.398-10.895,10.78c-2.744,4.375-4.715,9.373-5.891,14.993c-1.177,5.615-1.77,11.367-1.77,17.246
		c0,5.75,0.558,11.4,1.664,16.955c1.108,5.554,3.038,10.486,5.781,14.799c2.742,4.312,6.369,7.807,10.877,10.484
		c4.509,2.678,10.094,4.021,16.758,4.021c4.705,0,8.653-0.916,11.856-2.743c3.2-1.832,5.881-4.248,8.037-7.253
		c2.155-3.009,3.887-6.438,5.192-10.291c1.306-3.854,2.416-7.81,3.332-11.856c0.912-3.92,1.764-7.774,2.549-11.563
		c0.783-3.791,1.666-7.153,2.646-10.095c0.979-2.938,2.254-5.325,3.82-7.153c1.567-1.831,3.594-2.743,6.075-2.743
		c2.09,0,3.756,0.521,4.998,1.566c1.24,1.045,2.188,2.318,2.842,3.822c0.652,1.5,1.078,3.166,1.275,4.998
		c0.194,1.828,0.293,3.527,0.293,5.096c0,4.966-0.818,9.275-2.711,12.938c-1.896,3.655-5.746,5.684-10.746,6.076v26.461
		c6-0.523,11.334-2.127,15.45-4.805c4.115-2.68,7.35-6.045,9.831-10.094c2.479-4.053,4.215-8.658,5.262-13.817
		c1.045-5.164,1.552-10.485,1.552-15.976c0-5.485-0.499-10.846-1.479-16.069C136.635,622.415,134.927,617.71,132.512,613.53z"/>
</g>
</svg>
