<?xml version="1.0" encoding="utf-8"?>
<!-- Generator: Adobe Illustrator 16.0.4, SVG Export Plug-In . SVG Version: 6.00 Build 0)  -->
<!DOCTYPE svg PUBLIC "-//W3C//DTD SVG 1.1//EN" "http://www.w3.org/Graphics/SVG/1.1/DTD/svg11.dtd">
<svg version="1.1" id="Layer_1" xmlns="http://www.w3.org/2000/svg" xmlns:xlink="http://www.w3.org/1999/xlink" x="0px" y="0px"
	 width="49.333px" height="272.666px" viewBox="0 0 49.333 272.666" enable-background="new 0 0 49.333 272.666"
	 xml:space="preserve">
<rect x="-603.896" y="453.566" fill="none" width="773.962" height="320.984"/>
<text transform="matrix(1 0 0 1 -603.8965 593.5078)"><tspan x="0" y="0" font-family="'HelveticaNeue-Bold'" font-size="196" letter-spacing="-10">d</tspan><tspan x="108.778" y="0" font-family="'HelveticaNeue-Bold'" font-size="196" letter-spacing="-7">e</tspan><tspan x="213.44" y="0" font-family="'HelveticaNeue-Bold'" font-size="196" letter-spacing="-16">g</tspan><tspan x="316.535" y="0" font-family="'HelveticaNeue-Bold'" font-size="196" letter-spacing="-7">r</tspan><tspan x="385.33" y="0" font-family="'HelveticaNeue-Bold'" font-size="196" letter-spacing="-7">ee</tspan><tspan x="594.654" y="0" font-family="'HelveticaNeue-Bold'" font-size="196">s</tspan></text>
<g>
	<path fill="#FFFFFF" d="M14,11.28v215.797c-8,4.021-13.205,12.22-13.205,21.189c0,13.086,10.567,23.732,23.654,23.732
		c13.086,0,23.946-10.646,23.946-23.732c0-8.76-5.396-16.875-12.396-20.968V11.28c0-6.012-4.988-10.903-11-10.903S14,5.269,14,11.28
		z M32,11.28v218.112l1.026,0.455c7.079,3.36,11.687,10.589,11.687,18.419c0,11.236-9.123,20.378-20.359,20.378
		c-11.237,0-20.371-9.142-20.371-20.378c0-8.017,4.717-15.317,12.041-18.6L17,229.222V222h11v-3H17v-4h8v-2h-8v-5h8v-1h-8v-6h8v-1
		h-8v-5h8v-2h-8v-3h11v-4H17v-4h8v-1h-8v-6h8v-1h-8v-5h8v-2h-8v-5h8v-2h-8v-4h11v-3H17v-4h8v-2h-8v-5h8v-1h-8v-6h8v-1h-8v-5h8v-2h-8
		v-4h11v-3H17v-4h8v-2h-8v-5h8v-1h-8v-5h8v-2h-8v-5h8v-2h-8v-4h11v-3H17v-4h8v-2h-8v-4h8v-3h-8v-4h8v-2h-8v-5h8v-2h-8v-4h11v-3H17
		v-4h8v-2h-8v-5h8v-1h-8v-6h8v-1h-8v-5h8v-2h-8v-3h11v-4H17v-9.72c0-4.163,3.338-7.549,7.5-7.549S32,7.117,32,11.28z"/>
	<circle fill="#FFFFFF" cx="24.369" cy="248.267" r="15.072"/>
</g>
</svg>
